<svg xmlns="http://www.w3.org/2000/svg" viewBox="0 0 50.36 30.41"><defs><style>.cls-1{fill:#fff;}</style></defs><title>aaa-white-logo_1</title><g id="Layer_2" data-name="Layer 2"><g id="icons"><path class="cls-1" d="M50.1,1.26C48.64-1.27,41.24.08,31.18,4.68c-3.23-2.44-8.13-4-13.6-4C7.89.68,0,5.58,0,11.6c0,3.52,2.72,6.66,6.92,8.65-4.37,4-6.22,7.2-5.24,8.91,1.17,2,6.05,1.6,13.41-1.14l.14-.05-.21-.3,0,0c-5.65,2-9.55,2.23-10.44.69-.78-1.35.8-4,4.32-7.35a26,26,0,0,0,8.7,1.45c9.69,0,17.58-4.9,17.58-10.92a8,8,0,0,0-2.38-5.46c7.42-3.1,12.85-3.92,14-2,1.31,2.23-3.87,7.93-12.6,13.78l-.11.07.25.27.08-.05C45.28,11.06,51.75,4.11,50.1,1.26ZM26.81,14.34H23.47l1.65-6.05ZM16.66,1.87,13.3,14,10.15,3.26A19.16,19.16,0,0,1,16.66,1.87Zm1.69,12.46H15l1.66-6.05Zm-8.55,0H6.47L8.14,8.28ZM3.25,11.6c0-2.59,1.47-5,4.11-6.82L4.43,15.44A7.2,7.2,0,0,1,3.25,11.6Zm2.49,5.48.33-1.2h4.16l1.24,4.53A14.4,14.4,0,0,1,5.74,17.08Zm11.87,4.28a21,21,0,0,1-4.4-.48l1.37-5h4.2l1.48,5.3A23.43,23.43,0,0,1,17.61,21.36Zm.62-19.49a19.12,19.12,0,0,1,6.56,1.31L21.79,14ZM23.6,20.42l-.9-3.25.3-1.29h4.19l.68,2.45A15.83,15.83,0,0,1,23.6,20.42Zm7.09-4.94L27.51,4.58c2.79,1.83,4.39,4.37,4.39,7A7.07,7.07,0,0,1,30.69,15.48Z"/></g></g></svg>